<mxfile host="app.diagrams.net" modified="2023-11-14T05:40:20.129Z" agent="Mozilla/5.0 (Windows NT 10.0; Win64; x64) AppleWebKit/537.36 (KHTML, like Gecko) Chrome/119.0.0.0 Safari/537.36" etag="3hQHFeMIhlglDO7m0NYa" version="22.1.0" type="github">
  <diagram name="Page-1" id="_Rci3qbibz2OqR7aIKr_">
    <mxGraphModel dx="1195" dy="652" grid="1" gridSize="10" guides="1" tooltips="1" connect="1" arrows="1" fold="1" page="1" pageScale="1" pageWidth="827" pageHeight="1169" math="0" shadow="0">
      <root>
        <mxCell id="0" />
        <mxCell id="1" parent="0" />
        <mxCell id="oYG_W1EsCRa5w6HcFd6F-7" value="" style="edgeStyle=orthogonalEdgeStyle;rounded=0;orthogonalLoop=1;jettySize=auto;html=1;" parent="1" edge="1">
          <mxGeometry relative="1" as="geometry">
            <mxPoint x="329.58" y="240.0000000000001" as="sourcePoint" />
            <mxPoint x="329.58" y="329.9999999999999" as="targetPoint" />
            <Array as="points">
              <mxPoint x="329.58" y="250" />
              <mxPoint x="329.58" y="250" />
            </Array>
          </mxGeometry>
        </mxCell>
        <mxCell id="oYG_W1EsCRa5w6HcFd6F-8" value="" style="edgeStyle=orthogonalEdgeStyle;rounded=0;orthogonalLoop=1;jettySize=auto;html=1;" parent="1" source="oYG_W1EsCRa5w6HcFd6F-1" target="oYG_W1EsCRa5w6HcFd6F-2" edge="1">
          <mxGeometry relative="1" as="geometry" />
        </mxCell>
        <mxCell id="oYG_W1EsCRa5w6HcFd6F-11" value="" style="edgeStyle=orthogonalEdgeStyle;rounded=0;orthogonalLoop=1;jettySize=auto;html=1;" parent="1" source="oYG_W1EsCRa5w6HcFd6F-1" target="oYG_W1EsCRa5w6HcFd6F-10" edge="1">
          <mxGeometry relative="1" as="geometry" />
        </mxCell>
        <mxCell id="7zc0Mfx5krMREq7v9R2u-12" value="" style="edgeStyle=orthogonalEdgeStyle;rounded=0;orthogonalLoop=1;jettySize=auto;html=1;" edge="1" parent="1" target="7zc0Mfx5krMREq7v9R2u-11">
          <mxGeometry relative="1" as="geometry">
            <mxPoint x="340" y="230.0000000000001" as="sourcePoint" />
            <mxPoint x="450" y="309.9999999999999" as="targetPoint" />
          </mxGeometry>
        </mxCell>
        <mxCell id="oYG_W1EsCRa5w6HcFd6F-1" value="Home&lt;br&gt;- Resume link (PDF)" style="rounded=0;whiteSpace=wrap;html=1;" parent="1" vertex="1">
          <mxGeometry x="270" y="180" width="120" height="60" as="geometry" />
        </mxCell>
        <mxCell id="oYG_W1EsCRa5w6HcFd6F-13" value="" style="edgeStyle=orthogonalEdgeStyle;rounded=0;orthogonalLoop=1;jettySize=auto;html=1;entryX=0;entryY=0.5;entryDx=0;entryDy=0;" parent="1" source="oYG_W1EsCRa5w6HcFd6F-2" edge="1" target="7zc0Mfx5krMREq7v9R2u-4">
          <mxGeometry relative="1" as="geometry">
            <mxPoint x="140" y="460" as="targetPoint" />
          </mxGeometry>
        </mxCell>
        <mxCell id="oYG_W1EsCRa5w6HcFd6F-2" value="Work&lt;br&gt;- Intro&lt;br&gt;- Blog" style="rounded=0;whiteSpace=wrap;html=1;" parent="1" vertex="1">
          <mxGeometry x="80" y="320" width="120" height="60" as="geometry" />
        </mxCell>
        <mxCell id="oYG_W1EsCRa5w6HcFd6F-3" value="About Me&lt;br&gt;- Bio&lt;br&gt;- Work History" style="rounded=0;whiteSpace=wrap;html=1;" parent="1" vertex="1">
          <mxGeometry x="270" y="330" width="120" height="60" as="geometry" />
        </mxCell>
        <mxCell id="oYG_W1EsCRa5w6HcFd6F-10" value="Contact&lt;br&gt;- Contact Info&lt;br&gt;- Contact Form" style="rounded=0;whiteSpace=wrap;html=1;" parent="1" vertex="1">
          <mxGeometry x="490" y="330" width="120" height="60" as="geometry" />
        </mxCell>
        <mxCell id="oYG_W1EsCRa5w6HcFd6F-22" value="Blog Page" style="whiteSpace=wrap;html=1;" parent="1" vertex="1">
          <mxGeometry x="170" y="610" width="80" height="40" as="geometry" />
        </mxCell>
        <mxCell id="7zc0Mfx5krMREq7v9R2u-1" value="Blog Page" style="whiteSpace=wrap;html=1;" vertex="1" parent="1">
          <mxGeometry x="170" y="560" width="80" height="40" as="geometry" />
        </mxCell>
        <mxCell id="7zc0Mfx5krMREq7v9R2u-2" value="Blog Page" style="whiteSpace=wrap;html=1;" vertex="1" parent="1">
          <mxGeometry x="170" y="510" width="80" height="40" as="geometry" />
        </mxCell>
        <mxCell id="7zc0Mfx5krMREq7v9R2u-3" value="Blog Page" style="whiteSpace=wrap;html=1;" vertex="1" parent="1">
          <mxGeometry x="170" y="460" width="80" height="40" as="geometry" />
        </mxCell>
        <mxCell id="7zc0Mfx5krMREq7v9R2u-4" value="Blog Page" style="whiteSpace=wrap;html=1;" vertex="1" parent="1">
          <mxGeometry x="170" y="410" width="80" height="40" as="geometry" />
        </mxCell>
        <mxCell id="7zc0Mfx5krMREq7v9R2u-6" value="" style="endArrow=none;html=1;rounded=0;" edge="1" parent="1">
          <mxGeometry width="50" height="50" relative="1" as="geometry">
            <mxPoint x="140" y="630" as="sourcePoint" />
            <mxPoint x="140" y="430" as="targetPoint" />
          </mxGeometry>
        </mxCell>
        <mxCell id="7zc0Mfx5krMREq7v9R2u-7" value="" style="endArrow=classic;html=1;rounded=0;entryX=0;entryY=0.5;entryDx=0;entryDy=0;" edge="1" parent="1" target="7zc0Mfx5krMREq7v9R2u-3">
          <mxGeometry width="50" height="50" relative="1" as="geometry">
            <mxPoint x="140" y="480" as="sourcePoint" />
            <mxPoint x="190" y="430" as="targetPoint" />
          </mxGeometry>
        </mxCell>
        <mxCell id="7zc0Mfx5krMREq7v9R2u-8" value="" style="endArrow=classic;html=1;rounded=0;entryX=0;entryY=0.5;entryDx=0;entryDy=0;" edge="1" parent="1">
          <mxGeometry width="50" height="50" relative="1" as="geometry">
            <mxPoint x="140" y="529.86" as="sourcePoint" />
            <mxPoint x="170" y="529.86" as="targetPoint" />
          </mxGeometry>
        </mxCell>
        <mxCell id="7zc0Mfx5krMREq7v9R2u-9" value="" style="endArrow=classic;html=1;rounded=0;entryX=0;entryY=0.5;entryDx=0;entryDy=0;" edge="1" parent="1">
          <mxGeometry width="50" height="50" relative="1" as="geometry">
            <mxPoint x="140" y="579.86" as="sourcePoint" />
            <mxPoint x="170" y="579.86" as="targetPoint" />
          </mxGeometry>
        </mxCell>
        <mxCell id="7zc0Mfx5krMREq7v9R2u-10" value="" style="endArrow=classic;html=1;rounded=0;entryX=0;entryY=0.5;entryDx=0;entryDy=0;" edge="1" parent="1">
          <mxGeometry width="50" height="50" relative="1" as="geometry">
            <mxPoint x="140" y="629.86" as="sourcePoint" />
            <mxPoint x="170" y="629.86" as="targetPoint" />
          </mxGeometry>
        </mxCell>
        <mxCell id="7zc0Mfx5krMREq7v9R2u-11" value="Resume PDF" style="rounded=0;whiteSpace=wrap;html=1;" vertex="1" parent="1">
          <mxGeometry x="414" y="260" width="70" height="40" as="geometry" />
        </mxCell>
      </root>
    </mxGraphModel>
  </diagram>
</mxfile>
